<?xml version="1.0" encoding="iso-8859-1"?>
<!-- Generator: Adobe Illustrator 16.0.0, SVG Export Plug-In . SVG Version: 6.00 Build 0)  -->
<!DOCTYPE svg PUBLIC "-//W3C//DTD SVG 1.1//EN" "http://www.w3.org/Graphics/SVG/1.1/DTD/svg11.dtd">
<svg version="1.1" id="Capa_1" xmlns="http://www.w3.org/2000/svg" xmlns:xlink="http://www.w3.org/1999/xlink" x="0px" y="0px"
	 width="51.068px" height="32.971px" viewBox="0 0 51.068 32.971" style="enable-background:new 0 0 51.068 32.971;"
	 xml:space="preserve">
<path fill="#fff" stroke="#fff" d="M0,22.083c0,6.004,4.887,10.888,10.89,10.888c6.006,0,10.889-4.884,10.889-10.888c0-4.718-3.021-8.732-7.227-10.242
	l0.854-3.393l11.711,14.688h2.229c0.531,5.512,5.188,9.834,10.835,9.834c6.005,0,10.889-4.884,10.889-10.888
	S46.185,11.194,40.18,11.194c-1.903,0-3.694,0.494-5.253,1.356l-2.911-4.249l1.656-6.896h-6.049v2.107h3.375l-0.761,3.16H15.85
	l1.148-4.565h3.726V0h-9.835v2.107h3.938l-2.318,9.22c-0.53-0.078-1.066-0.133-1.619-0.133C4.887,11.194,0,16.079,0,22.083z
	 M33.189,13.745c-2.126,1.786-3.562,4.368-3.845,7.283h-0.386l2.394-9.966L33.189,13.745z M34.392,15.497l3.789,5.532h-6.712
	C31.731,18.833,32.811,16.89,34.392,15.497z M31.469,23.137h10.71l-6.054-8.835c1.215-0.635,2.593-0.999,4.055-0.999
	c4.842,0,8.781,3.938,8.781,8.781c0,4.841-3.939,8.78-8.781,8.78C35.694,30.864,31.991,27.482,31.469,23.137z M18.368,8.781h11.365
	l-2.632,10.958L18.368,8.781z M2.109,22.083c0-4.843,3.939-8.781,8.78-8.781c0.375,0,0.742,0.031,1.104,0.077l-2.125,8.447
	l2.044,0.514l2.123-8.444c3.291,1.269,5.635,4.456,5.635,8.188c0,4.841-3.938,8.78-8.781,8.78
	C6.049,30.864,2.109,26.925,2.109,22.083z"/>
<g>
</g>
<g>
</g>
<g>
</g>
<g>
</g>
<g>
</g>
<g>
</g>
<g>
</g>
<g>
</g>
<g>
</g>
<g>
</g>
<g>
</g>
<g>
</g>
<g>
</g>
<g>
</g>
<g>
</g>
</svg>
